<svg width="1032" height="1024" viewBox="0 0 1032 1024" fill="none" xmlns="http://www.w3.org/2000/svg">
<path d="M0 0H1032V1024H0V0Z" fill="#E04A58"/>
<g clip-path="url(#clip0)">
<path d="M77 512.455C77 480.308 88.4614 452.863 111.384 430.118C134.307 407.373 161.967 396 194.365 396C226.762 396 254.422 407.373 277.345 430.118C300.268 452.863 311.729 480.308 311.729 512.455C311.729 544.601 300.268 572.047 277.345 594.792C254.422 617.537 226.762 628.91 194.365 628.91C161.967 628.91 134.307 617.537 111.384 594.792C88.4614 572.047 77 544.601 77 512.455ZM89.8368 512.455C89.8368 540.962 100.076 565.375 120.553 585.694C141.031 606.013 165.635 616.173 194.365 616.173C223.095 616.173 247.698 606.013 268.176 585.694C288.654 565.375 298.893 540.962 298.893 512.455C298.893 483.948 288.654 459.535 268.176 439.216C247.698 418.897 223.094 408.737 194.365 408.737C165.635 408.737 141.031 418.897 120.553 439.216C100.076 459.535 89.8368 483.948 89.8368 512.455ZM122.846 537.474C122.235 536.868 122.235 536.261 122.846 535.655C124.068 534.442 125.597 533.987 127.43 534.29C129.264 534.593 130.334 534.897 130.639 535.2C132.779 536.11 135.148 538.157 137.745 541.341C140.343 544.525 142.406 546.724 143.934 547.937C151.27 554.002 158.758 554.457 166.399 549.302C167.01 547.179 168.003 545.359 169.378 543.843C170.754 542.326 172.053 541.265 173.275 540.658C174.498 540.052 176.638 539.142 179.694 537.929C169.608 537.019 161.432 535.275 155.167 532.698C148.901 530.12 143.934 526.86 140.267 522.917C135.376 517.458 132.396 510.332 131.327 501.537C130.257 492.742 130.944 484.706 133.39 477.427C135.224 472.878 137.822 468.784 141.183 465.145C138.738 457.563 139.197 448.92 142.559 439.215C152.339 439.822 161.203 443.158 169.149 449.223C184.431 445.281 200.324 445.129 216.828 448.768C218.968 447.252 222.253 445.357 226.685 443.082C231.117 440.807 236.695 439.518 243.419 439.215C244.641 442.551 245.482 446.494 245.94 451.043C246.399 455.592 246.17 459.837 245.253 463.78C252.282 471.058 255.95 480.763 256.255 492.894C256.255 502.598 254.575 510.635 251.213 517.003C247.851 523.372 241.891 528.679 233.333 532.925C227.526 535.654 219.885 537.322 210.41 537.929C214.689 540.051 217.822 542.25 219.809 544.525C221.795 546.799 223.094 550.363 223.706 555.215V569.545L224.164 583.419C225.081 584.936 226.151 586.224 227.373 587.286C228.596 588.347 229.666 589.106 230.583 589.56C231.499 590.015 231.805 590.698 231.499 591.608C231.194 592.517 229.971 592.972 227.832 592.972C222.636 592.972 218.51 591.153 215.454 587.513C214.537 585.997 214.078 584.178 214.078 582.054V560.219C214.078 557.793 213.467 556.049 212.244 554.988C211.022 553.926 209.799 553.244 208.577 552.941V581.599C208.577 586.755 209.188 590.091 210.411 591.607C211.633 593.124 212.397 594.64 212.703 596.156C213.009 596.459 212.779 596.687 212.015 596.838C211.251 596.99 209.952 596.763 208.118 596.156C204.145 595.246 201.394 593.199 199.866 590.015C198.338 586.831 197.574 583.419 197.574 579.78V551.576H191.614V579.78C191.614 583.419 190.85 586.907 189.321 590.243C187.182 594.489 183.209 596.763 177.402 597.066C176.485 596.763 176.026 596.46 176.026 596.157C176.332 595.853 177.249 594.337 178.777 591.608C179.083 591.001 179.465 589.788 179.923 587.969C180.382 586.149 180.611 584.026 180.611 581.6V552.941C179.389 553.244 178.242 553.927 177.173 554.988C176.103 556.05 175.568 557.794 175.568 560.22V582.055C175.568 584.178 175.109 585.997 174.193 587.514C171.442 591.153 167.316 592.973 161.814 592.973C159.675 592.973 158.452 592.518 158.147 591.608C157.841 591.002 157.918 590.471 158.376 590.016C158.835 589.561 159.522 589.03 160.439 588.424C161.356 587.817 161.968 587.362 162.273 587.059C163.496 586.149 164.412 584.936 165.024 583.42C165.941 582.207 166.17 579.022 165.711 573.867C165.253 568.711 165.176 565.375 165.482 563.859C157.535 566.588 149.436 565.223 141.184 559.765C138.739 557.339 136.294 553.851 133.848 549.302C132.015 545.966 128.347 542.023 122.846 537.474V537.474Z" fill="white"/>
</g>
<path d="M419.742 542.674C417.333 546.124 413.964 548.712 409.635 550.438C405.338 552.13 400.325 552.977 394.596 552.977C388.801 552.977 383.658 551.626 379.166 548.924C374.674 546.189 371.191 542.316 368.717 537.303C366.275 532.29 365.022 526.479 364.957 519.871V513.67C364.957 502.96 367.447 494.66 372.428 488.768C377.441 482.876 384.472 479.93 393.521 479.93C400.943 479.93 406.917 481.834 411.441 485.643C415.966 489.419 418.733 494.79 419.742 501.756H410.367C408.609 492.348 403.01 487.645 393.57 487.645C387.288 487.645 382.519 489.858 379.264 494.285C376.041 498.68 374.413 505.06 374.381 513.426V519.236C374.381 527.212 376.204 533.559 379.85 538.279C383.495 542.967 388.427 545.311 394.645 545.311C398.16 545.311 401.236 544.92 403.873 544.139C406.51 543.357 408.691 542.039 410.416 540.184V524.217H393.961V516.6H419.742V542.674ZM443.814 552H434.781V499.168H443.814V552ZM434.049 485.154C434.049 483.689 434.488 482.452 435.367 481.443C436.279 480.434 437.613 479.93 439.371 479.93C441.129 479.93 442.464 480.434 443.375 481.443C444.286 482.452 444.742 483.689 444.742 485.154C444.742 486.619 444.286 487.84 443.375 488.816C442.464 489.793 441.129 490.281 439.371 490.281C437.613 490.281 436.279 489.793 435.367 488.816C434.488 487.84 434.049 486.619 434.049 485.154ZM470.572 486.375V499.168H480.436V506.15H470.572V538.914C470.572 541.03 471.012 542.625 471.891 543.699C472.77 544.741 474.267 545.262 476.383 545.262C477.424 545.262 478.857 545.066 480.68 544.676V552C478.303 552.651 475.992 552.977 473.746 552.977C469.71 552.977 466.666 551.756 464.615 549.314C462.564 546.873 461.539 543.406 461.539 538.914V506.15H451.92V499.168H461.539V486.375H470.572ZM500.064 505.564C504.068 500.649 509.277 498.191 515.689 498.191C526.855 498.191 532.486 504.49 532.584 517.088V552H523.551V517.039C523.518 513.23 522.639 510.415 520.914 508.592C519.221 506.769 516.568 505.857 512.955 505.857C510.025 505.857 507.454 506.639 505.24 508.201C503.027 509.764 501.301 511.814 500.064 514.354V552H491.031V477H500.064V505.564ZM578.727 546.775C575.211 550.91 570.051 552.977 563.248 552.977C557.617 552.977 553.32 551.349 550.357 548.094C547.428 544.806 545.947 539.956 545.914 533.543V499.168H554.947V533.299C554.947 541.307 558.202 545.311 564.713 545.311C571.614 545.311 576.204 542.739 578.482 537.596V499.168H587.516V552H578.922L578.727 546.775ZM646.012 526.17C646.012 534.243 644.156 540.737 640.445 545.652C636.734 550.535 631.754 552.977 625.504 552.977C618.831 552.977 613.671 550.617 610.025 545.896L609.586 552H601.285V477H610.318V504.979C613.964 500.454 618.993 498.191 625.406 498.191C631.819 498.191 636.848 500.617 640.494 505.467C644.173 510.317 646.012 516.958 646.012 525.389V526.17ZM636.979 525.145C636.979 518.992 635.79 514.24 633.414 510.887C631.038 507.534 627.62 505.857 623.16 505.857C617.203 505.857 612.923 508.624 610.318 514.158V537.01C613.085 542.544 617.398 545.311 623.258 545.311C627.587 545.311 630.956 543.634 633.365 540.281C635.774 536.928 636.979 531.883 636.979 525.145ZM722.867 520.604H693.033V552H683.658V480.906H727.701V488.621H693.033V512.938H722.867V520.604ZM747.33 552H738.297V499.168H747.33V552ZM737.564 485.154C737.564 483.689 738.004 482.452 738.883 481.443C739.794 480.434 741.129 479.93 742.887 479.93C744.645 479.93 745.979 480.434 746.891 481.443C747.802 482.452 748.258 483.689 748.258 485.154C748.258 486.619 747.802 487.84 746.891 488.816C745.979 489.793 744.645 490.281 742.887 490.281C741.129 490.281 739.794 489.793 738.883 488.816C738.004 487.84 737.564 486.619 737.564 485.154ZM770.377 499.168L770.67 505.809C774.706 500.73 779.98 498.191 786.49 498.191C797.656 498.191 803.287 504.49 803.385 517.088V552H794.352V517.039C794.319 513.23 793.44 510.415 791.715 508.592C790.022 506.769 787.369 505.857 783.756 505.857C780.826 505.857 778.255 506.639 776.041 508.201C773.827 509.764 772.102 511.814 770.865 514.354V552H761.832V499.168H770.377ZM814.811 525.145C814.811 517.039 816.731 510.529 820.572 505.613C824.413 500.665 829.443 498.191 835.66 498.191C841.845 498.191 846.744 500.307 850.357 504.539V477H859.391V552H851.09L850.65 546.336C847.037 550.763 842.008 552.977 835.562 552.977C829.443 552.977 824.446 550.47 820.572 545.457C816.731 540.444 814.811 533.901 814.811 525.828V525.145ZM823.844 526.17C823.844 532.16 825.081 536.847 827.555 540.232C830.029 543.618 833.447 545.311 837.809 545.311C843.538 545.311 847.721 542.739 850.357 537.596V513.328C847.656 508.348 843.505 505.857 837.906 505.857C833.479 505.857 830.029 507.566 827.555 510.984C825.081 514.402 823.844 519.464 823.844 526.17ZM895.377 552.977C888.215 552.977 882.389 550.633 877.896 545.945C873.404 541.225 871.158 534.926 871.158 527.049V525.389C871.158 520.148 872.151 515.477 874.137 511.375C876.155 507.241 878.954 504.018 882.535 501.707C886.148 499.363 890.055 498.191 894.254 498.191C901.122 498.191 906.461 500.454 910.27 504.979C914.078 509.503 915.982 515.981 915.982 524.412V528.172H880.191C880.322 533.38 881.835 537.596 884.732 540.818C887.662 544.008 891.373 545.604 895.865 545.604C899.055 545.604 901.757 544.952 903.971 543.65C906.184 542.348 908.121 540.623 909.781 538.475L915.299 542.771C910.872 549.575 904.231 552.977 895.377 552.977ZM894.254 505.613C890.608 505.613 887.548 506.948 885.074 509.617C882.6 512.254 881.07 515.965 880.484 520.75H906.949V520.066C906.689 515.477 905.452 511.928 903.238 509.422C901.025 506.883 898.03 505.613 894.254 505.613ZM952.018 507.273C950.65 507.046 949.169 506.932 947.574 506.932C941.65 506.932 937.63 509.454 935.514 514.5V552H926.48V499.168H935.27L935.416 505.271C938.378 500.551 942.577 498.191 948.014 498.191C949.771 498.191 951.106 498.419 952.018 498.875V507.273Z" fill="white"/>
<defs>
<clipPath id="clip0">
<rect width="234.729" height="232.91" fill="white" transform="translate(77 396)"/>
</clipPath>
</defs>
</svg>
